<svg width="24" height="25" viewBox="0 0 24 25" fill="none" xmlns="http://www.w3.org/2000/svg">
<path d="M13.8125 10.886C13.4688 10.5422 13.0938 10.2922 12.6875 10.0735C12.5312 10.011 12.375 10.0422 12.25 10.1672L12.125 10.2922C11.8438 10.5422 11.6875 10.886 11.6562 11.2297C11.625 11.386 11.7188 11.5422 11.8438 11.636C12.125 11.761 12.375 11.9172 12.5625 12.136C13.5938 13.1672 13.5938 14.8235 12.5625 15.8547L10.2188 18.1985C9.1875 19.2297 7.53125 19.2297 6.5 18.1985C5.46875 17.1672 5.46875 15.511 6.5 14.4797L7.9375 13.0422C8.03125 12.9485 8.0625 12.8235 8.03125 12.6985C7.9375 12.3235 7.90625 11.9172 7.875 11.511C7.875 11.1985 7.46875 11.0422 7.25 11.261C6.875 11.636 6.28125 12.2297 5.28125 13.2297C3.5625 14.9485 3.5625 17.7297 5.28125 19.4172C6.96875 21.136 9.75 21.136 11.4688 19.4172C14.0312 16.8547 13.9062 16.9797 14.0938 16.7297C15.5 15.0422 15.4062 12.4797 13.8125 10.886ZM18.6875 6.01099C17 4.29224 14.2188 4.29224 12.5 6.01099C9.9375 8.57349 10.0625 8.44849 9.875 8.69849C8.46875 10.386 8.5625 12.9485 10.1562 14.5422C10.5 14.886 10.875 15.136 11.2812 15.3547C11.4375 15.4172 11.5938 15.386 11.7188 15.261L11.8438 15.136C12.125 14.886 12.2812 14.5422 12.3125 14.1985C12.3438 14.0422 12.25 13.886 12.125 13.7922C11.8438 13.6672 11.5938 13.511 11.4062 13.2922C10.375 12.261 10.375 10.6047 11.4062 9.57349L13.75 7.22974C14.7812 6.19849 16.4375 6.19849 17.4688 7.22974C18.5 8.26099 18.5 9.91724 17.4688 10.9485L16.0312 12.386C15.9375 12.4797 15.9062 12.6047 15.9375 12.7297C16.0312 13.1047 16.0625 13.511 16.0938 13.9172C16.0938 14.2297 16.5 14.386 16.7188 14.1672C17.0938 13.7922 17.6875 13.1985 18.6875 12.1985C20.4062 10.4797 20.4062 7.69849 18.6875 6.01099Z" fill="white"/>
</svg>
