<svg width="24" height="25" viewBox="0 0 24 25" fill="none" xmlns="http://www.w3.org/2000/svg">
<path d="M4.5 6.19849H19.5V10.386C20.0312 10.4797 20.5625 10.6672 21 10.9797V6.26099C21 5.41724 20.3125 4.69849 19.5 4.69849H4.5C3.65625 4.69849 3 5.41724 3 6.26099V10.9797C3.40625 10.6672 3.9375 10.4797 4.5 10.386V6.19849ZM5.375 17.3235H4.625C3.15625 17.3235 2 18.511 2 19.9485C2 20.386 2.3125 20.6985 2.75 20.6985C3.15625 20.6985 3.5 20.386 3.5 19.9485C3.5 19.3547 4 18.8235 4.625 18.8235H5.375C5.96875 18.8235 6.5 19.3547 6.5 19.9485C6.5 20.386 6.8125 20.6985 7.25 20.6985C7.65625 20.6985 8 20.386 8 19.9485C8 18.511 6.8125 17.3235 5.375 17.3235ZM19 11.3235C17.5938 11.3235 16.5 12.4485 16.5 13.8235C16.5 15.2297 17.5938 16.3235 19 16.3235C20.375 16.3235 21.5 15.2297 21.5 13.8235C21.5 12.4485 20.375 11.3235 19 11.3235ZM19 14.8235C18.4375 14.8235 18 14.386 18 13.8235C18 13.2922 18.4375 12.8235 19 12.8235C19.5312 12.8235 20 13.2922 20 13.8235C20 14.386 19.5312 14.8235 19 14.8235ZM19.375 17.3235H18.625C17.1562 17.3235 16 18.511 16 19.9485C16 20.386 16.3125 20.6985 16.75 20.6985C17.1562 20.6985 17.5 20.386 17.5 19.9485C17.5 19.3547 18 18.8235 18.625 18.8235H19.375C19.9688 18.8235 20.5 19.3547 20.5 19.9485C20.5 20.386 20.8125 20.6985 21.25 20.6985C21.6562 20.6985 22 20.386 22 19.9485C22 18.511 20.8125 17.3235 19.375 17.3235ZM5 16.3235C6.375 16.3235 7.5 15.2297 7.5 13.8235C7.5 12.4485 6.375 11.3235 5 11.3235C3.59375 11.3235 2.5 12.4485 2.5 13.8235C2.5 15.2297 3.59375 16.3235 5 16.3235ZM5 12.8235C5.53125 12.8235 6 13.2922 6 13.8235C6 14.386 5.53125 14.8235 5 14.8235C4.4375 14.8235 4 14.386 4 13.8235C4 13.2922 4.4375 12.8235 5 12.8235ZM9.5 13.8235C9.5 15.2297 10.5938 16.3235 12 16.3235C13.375 16.3235 14.5 15.2297 14.5 13.8235C14.5 12.4485 13.375 11.3235 12 11.3235C10.5938 11.3235 9.5 12.4485 9.5 13.8235ZM13 13.8235C13 14.386 12.5312 14.8235 12 14.8235C11.4375 14.8235 11 14.386 11 13.8235C11 13.2922 11.4375 12.8235 12 12.8235C12.5312 12.8235 13 13.2922 13 13.8235ZM12.375 17.3235H11.625C10.1562 17.3235 9 18.511 9 19.9485C9 20.386 9.3125 20.6985 9.75 20.6985C10.1562 20.6985 10.5 20.386 10.5 19.9485C10.5 19.3547 11 18.8235 11.625 18.8235H12.375C12.9688 18.8235 13.5 19.3547 13.5 19.9485C13.5 20.386 13.8125 20.6985 14.25 20.6985C14.6562 20.6985 15 20.386 15 19.9485C15 18.511 13.8125 17.3235 12.375 17.3235Z" fill="white"/>
</svg>
