<svg xmlns="http://www.w3.org/2000/svg" viewBox="0 0 99.31 114.04"><title>Asset 1</title><g id="Layer_2" data-name="Layer 2"><g id="Layer_1-2" data-name="Layer 1"><path d="M95.38,88.64a53.86,53.86,0,0,1-91.45,0l5.31-3.07a11.9,11.9,0,0,1,14.22,1.78,37.73,37.73,0,0,0,52.38,0,11.9,11.9,0,0,1,14.22-1.78Z" fill="#294b77"/><path d="M99.31,35.17v7.2L49.66,13.7,0,42.37v-7.2A14.22,14.22,0,0,1,7.12,22.84l37-21.35a11.07,11.07,0,0,1,11.1,0l37,21.35a14.24,14.24,0,0,1,7.12,12.33" fill="#f8d552"/><path d="M11.18,57.29v6l32.93-19a11.11,11.11,0,0,1,11.1,0L94.55,67a9.51,9.51,0,0,1,4.76,8.23v5.64A2.48,2.48,0,0,1,95.59,83L49.66,56.45,11.18,78.66,3.48,83.1a2.32,2.32,0,0,1-3.48-2V54.84a11.29,11.29,0,0,1,5.65-9.78l38.46-22.2a11.11,11.11,0,0,1,11.1,0l38.45,22.2a11.31,11.31,0,0,1,5.65,9.78v8.9L55.21,38.28a11.11,11.11,0,0,0-11.1,0Z" fill="#294b77"/></g></g></svg>